<?xml version="1.0" encoding="utf-8"?>
<!-- Generator: Adobe Illustrator 27.3.1, SVG Export Plug-In . SVG Version: 6.00 Build 0)  -->
<svg version="1.1" id="Layer_1" xmlns="http://www.w3.org/2000/svg" xmlns:xlink="http://www.w3.org/1999/xlink" x="0px" y="0px"
	 viewBox="0 0 1920 928" style="enable-background:new 0 0 1920 928;" xml:space="preserve">
<style type="text/css">
	.st0{fill:#3B82F6;}
	.st1{fill:#FFFFFF;}
</style>
<rect x="439.9" y="0" class="st0" width="1016.2" height="928"/>
<path class="st1" d="M438.9,838c0-155.4,0-310.7,0.3-466.3c2.4,2.7,5.6,5.1,6,8.9c0.6,7.1-0.3,14.2-2.6,21.1
	c-3.1,9.5-5.6,19.1,4,26.8c0.6,0.5,1.3,1.2,1.5,2c2.8,9.3,9.7,15.7,16,22.5c4.8,5.2,8.3,10.6,5.2,18.3c-9.4-2.5-13-12.3-21-16.2
	c-2,3.6-1.4,6,1.2,8.4c3.7,3.4,7.5,6.9,9.6,11.9c-3.3,0.5-6.3-0.6-9.3,0.5c0,2,1,3.4,2.1,5c3.1,4.2,6.9,7.7,10.4,11.4
	c4.8,5.1,9.8,10.8,11.1,17.5c1.9,9.8,8.8,15.6,14.3,22.8c5.7,7.4,12.6,14.2,14.4,24c0.9,4.7,0.9,9.6,1.9,14.3
	c2.2,10.1,7.9,18.6,13.9,26.8c6.2,8.6,12.9,17,12.8,28.5c0,3.6,1.1,7.2,1.3,10.8c0.6,8.8,3.2,17.6,0.6,26.6c-1.9,6.7-2.1,7-8.8,5.1
	c-2-0.5-4.4-1.1-4.4,2c0.1,5.8,0.2,11.6,2.9,17c0.8,1.6,1.9,2.6,3.9,2.3c8.2-1.3,14.7,2.3,20.2,7.6c5.3,5,11.4,7,18.5,7.2
	c6.5,0.2,13.1,0,19.3-1.4c10.2-2.2,20.5-5.2,26.3-15.3c2.4-4.3,6.3-6.2,10.8-7.3c4.2-1,7.3-3.3,7.8-7.9c0.3-3,2.2-4.5,4.6-6
	c4.8-3.1,10.2-3.9,15.6-4.5c12.7-1.4,25.1-7,38.2-2.8c1.7,0.6,3.9-0.1,5.9-0.5c6.2-1.1,12.4-3.1,18.7-2.3c6.9,0.9,11.5-2.2,16-7
	c4-4.3,5.3-9.6,6-15c0.6-5.2,3.6-7.4,8.1-7.9c5.1-0.5,9.1-2.8,13.1-5.5c6.1-4.1,12.4-7.8,18.4-11.9c7-4.8,14.7-5.4,22.8-4.2
	c5.6,0.8,11.1,1,16.4-2.2c9.4-5.7,19-11.1,29.2-15.3c3.4-1.4,4.6-3.9,4.4-7.5c-0.6-14.9-1.2-29.8-1.9-44.7
	c-0.7-16.8-1.4-33.5-2-50.3c-0.7-18.3-1.3-36.5-2-54.8c-0.7-18.1-1.3-36.2-2-54.3c-0.7-18.3-1.3-36.5-2-54.8
	c-0.7-17.9-1.3-35.9-2-53.8c-0.7-16.6-1.3-33.2-2-49.8c-0.7-17.8-1.1-35.5-2.1-53.3c-0.8-15.6-0.8-31.3-1.1-46.9
	c0-0.8,0-1.7-0.1-2.5c-0.6-4.4-1.8-7.5-7.4-8.2c-9.6-1.2-18.8-3.3-25.5-11.6c-5.3-6.6-13.5-9.5-21.1-12.8c-6.7-3-10.4-1-11.5,6.1
	c-0.3,1.7-1.4,2.2-2.8,2.2c-11.3,0.1-13.3,1.4-17.5,11.7c-0.3,0.8-0.4,2-1.9,2.3c-6.8-4.4-12.2,0.3-17.3,3.8
	c-4.2,2.9-4.5,7.5,0.6,11.7c-7,1.6-5,6.6-5.1,10.6c-11.7-0.8-18.1,7.6-13.9,17.9c0.6,1.4,0.5,2.4-0.1,3.7c-3.9,8.2-3.9,8.2-13,6.9
	c-1.6-0.2-3.3-0.7-4.9-0.8c-1.7,0-4.1,0.6-3.9,2.4c0.6,4.7-3.1,10.3,2.7,14.2c1.2,0.8,1.7,2.4,2.6,3.6c1,1.4,0.3,3.4-0.7,3.4
	c-4.4-0.1-3,3.3-3.9,5.4c-1,2.3,0,5-1.7,7.3c-3.8-0.9-5.9-3.6-7.5-6.8c-2.5-5.2-4.8-10.6-7.3-15.8c-2.1-4.3-3.5-4.5-6.7-0.8
	c-4.7,5.6-9.3,11.3-13.9,17c-1,1.2-1.2,2.6-1.7,4.1c-1.9,6.4,1.1,11.7,3.5,17.1c2,4.4,1.6,8-2.2,11.1c-7.9,6.5-12.5,14.7-14.5,24.8
	c-1.1,5.4-4.4,10.8-9,13.3c-10.2,5.5-18.9,14.4-31.3,15.6c-1.3,0.1-2.8,0.6-3.6,1.4c-2.6,2.8-5.5,2.6-8.6,1.7
	c-1.8-0.5-3.6-0.7-5.3-1.3c-2.7-1-4.8-0.3-5.7,2.3c-2.8,8.2-10.2,9.3-17.1,10.9c-4.1,1-7.4,3.1-9.8,6.4c-4.1,5.9-10.3,8.3-17.5,7.1
	c-8-1.4-15.8-0.9-22.1,4.8c-4.3,3.9-8.2,8.3-11.8,12.8c-6,7.6-12,14.7-21.7,18.3c-5,1.9-10,5.5-9.5,12.6c0.2,2.7-0.7,5.6-1.5,8.3
	c-0.8,2.8-2.9,4.6-5.9,4.5c-3.1-0.1-1.9-3-2.4-4.7c-0.5-1.8-0.7-3.6-0.8-5.4c-0.2-2.2,0-4.7-2.9-5c-2.9-0.3-3.2,2.4-3.9,4.4
	c-1.4,3.8-1.1,8.2-3.8,11.6c0-68.4,0-136.7,0.3-205.4c11.2,2.7,21.1,1.3,30-6.2c6.5-5.4,13.7-9.4,22.4-10.1
	c4.6-0.4,9.4-1.2,13.2-4.1c9-6.9,18.5-13.1,26.5-21.2c3.6-3.7,7.7-7,12.3-9.4c10.9-5.7,18.3-14.9,24.9-24.7
	c3.9-5.8,7.9-11.6,12-17.2c9.8-13.5,19.2-27.3,33.1-37c4-2.8,7.4-6.2,10.6-9.8c1.3-1.6,2.9-3.5,1.9-5.4c-2.7-4.9-2.4-10.7-5.3-15.4
	c197,0,394,0,591.5,0.3c-0.9,1.8-1.9,3.9-3.6,4.7c-6.1,2.7-7.3,8.3-8.3,13.8c-1.4,7.9-4.3,14.9-8.9,21.4c-1.2,1.8-2.3,3.7-3.5,5.4
	c-1.3,1.9-1.3,3.4,0.4,5.3c4.2,4.4,4.2,5.6-0.9,9.1c-2.7,1.9-3.8,4-3.4,7.1c0.6,4.6-0.5,8.7-3.1,12.6c-3,4.5-5.1,9.2-2,14.8
	c1.8,3.2,1.8,7.2,0.8,10.8c-1.4,5.3-2,10.4,0.5,15.5c0.6,1.2,0.8,2.5,0.2,3.8c-3.9,9.3-6.4,19.1-8.2,29.1
	c-2.7,15.2-13.8,26.1-21.5,38.8c-0.8,1.3-2,1.8-3.4,1.7c-3.5-0.1-6.9,1.1-10.3,1.8c-3.1,0.7-5.9,0.7-8.7-1.9
	c-2.5-2.3-4.9-5.1-8.5-5.9c-5.1-1.2-8.4-4.2-10.2-9.2c-1.6-4.4-4.8-7.6-9.1-9.5c-4.6-2-9.3-3.5-14-5.2c-3.7-1.3-5.5-0.4-5.6,4
	c-0.1,9.3-0.2,18.6-0.7,27.9c-0.8,18.2-1.5,36.5-2.1,54.8c-0.6,17.4-1.2,34.9-2,52.3c-1.1,23.7-1.1,47.5-2.3,71.3
	c-0.7,15.1-0.2,30.2-1.9,45.3c-0.5,4.7,1.6,6.7,6.3,6.7c7-0.1,13.9,0.5,20.9,0.7c14.3,0.6,28.5,1.4,42.8,2.2c3.1,0.2,4.1,1.4,4,4.3
	c-0.4,7.8-0.4,15.6-1.4,23.4c-0.6,4.5-0.4,9-0.8,13.4c-1.1,12.7-1.9,25.5-2.8,38.2c-0.2,3.4,1.3,4.7,4.7,4.9
	c17.2,1.2,34.4,2.9,51.6,3.8c14.4,0.8,28.7,3.1,43,4.4c14.8,1.3,29.6,3.3,44.4,4.7c12.7,1.2,25.4,2.2,38.1,3.8
	c6.7,0.8,13.6,2.2,18.8-4.9c2-2.7,6.5-5.4,10.1-3c4.9,3.3,9.6,2.7,14.7,1.5c1.9-0.4,3.6-0.6,4.9,1.3c1.7,2.6,4.2,3.2,7.3,3.4
	c8.2,0.3,14.5,7.1,14.3,15.2c1.9-0.1,3.1-1.3,4.1-2.5c2-2.1,4.3-3.1,7.1-2.8c3.2,0.3,4.6-0.9,5.5-4.2c1.6-6.2,14.3-12.3,20.1-9.7
	c5,2.2,10.1,1.9,15.2,1.9c3.2,0,4.1-1.8,4.4-4.8c0.9-7.2-0.9-13.8-4.1-20.1c-0.9-1.6-2.3-3.8,0-5.2c2.2-1.4,2-3.2,2-5.2
	c0-4.2,0-8.3,0-12.5c0.1-4.8-1.4-9.8,2.7-14c1.1-1.1,1-3.1-0.1-4.7c-2.3-3.5-3-7.3-2.6-11.4c0.1-1.5-0.2-3.1-1.4-4.1
	c-3.4-3-4.8-7.2-6-11.3c-1.2-4.1-3.4-7.1-7.1-9c-2.8-1.5-4.1-3.6-4.7-7c-1.1-6.3-3-12.5-11.1-13.3c-1.2-0.1-2.3-1.2-3.1-2.4
	c-2.1-3-4.2-6-6.6-8.7c-3.8-4.4-5-9.1-3.2-14.7c2.4-7.8-0.7-14.1-6.1-19.6c-1.9-1.9-3.9-3.7-5.4-5.9c-1.9-2.7-4.2-5.6-7.4-5.1
	c-3.3,0.4-1.4,4.7-2.8,6.9c-3,0.3-5.8-0.4-8-1.7c-0.7-11.7-0.5-23.2-4.6-34.1c-1.9-5.1-4.6-10-6.8-15c-1.1-2.5-2.4-5-1.8-8.1
	c1.3-7.6-3.9-12.2-11.4-10.1c-0.4-0.7-1-1.3-1.3-2.1c-2.1-5.9-5.8-9.4-12.5-9.2c-2.5,0.1-3.8-1.8-4.5-4c-0.7-2.4-1.4-4.8-2.2-7.2
	c-0.6-2.1-2.1-3.8-4.3-3.5c-7.3,1-12.5-3.1-17.4-7.2c-4.2-3.4-9.4-7.1-8.1-13.8c0.6-3.1,0.4-6.3,1.2-9.4c0.6-2.3-0.1-4.1-2.1-5
	c-3.9-1.6-3.5-4.1-2-7.2c2.7-5.9,2.8-11.9,0.1-17.8c-2.6-5.6-5.2-11.2-8.2-16.5c-3.9-6.9-6.6-13.7-4.2-21.8c0.5-1.7,0.4-3.8,0-5.5
	c-2.2-7.8-2.1-15.7-1.8-23.7c0.1-2-0.1-4-1.8-5.5c-2.6-2.1-5.2-4.1-7.7-6.3c-2.8-2.5-6.2-4.5-7.3-8.5c-1.8-6.4-6.1-7.7-11.4-3.6
	c-0.8,0.6-1.5,1.4-2.2,2c-4.2,3.6-8.1,2.5-9.7-2.7c-1.1-3.7-2-7.4-3.1-11c-1.3-4.4-2.2-8.8-2-13.6c0.2-4.8,2.3-9.6,0.9-14.3
	c-2-6.7-2.8-14-8.5-19.2c-2.1-1.9-2.7-4-0.7-6.6c1.5-1.9,1.3-4.2-0.9-5.7c-3.8-2.5-4.7-6.2-4.5-10.4c0.2-3.7-0.1-7.3,0.1-11
	c0.2-3.3-0.7-5.8-3.3-7.9c-2.5-1.9-3.3-4.5-2.4-7.5c50.7,0,101.4,0,152.3,0.2c-2.5,2.8,0.2,5.8-0.5,8.7c-1.7,7.2,1.7,11.7,7.4,15.8
	c13.1,9.5,24.4,20.6,28.4,37.2c1.1,4.7,1.5,9.5,2.6,14.2c3.1,14.1,6.1,28.3,16.3,39.6c5,5.5,10,11.1,14.9,16.7
	c2.5,2.9,5.6,4.5,9.5,4.7c4.8,0.3,9.6,0.8,14.1,2.8c0,98,0,196-0.2,294.3c-2.8-1.9-5.8-4.8-8.6-0.9c-3.2,4.4-4.3,9.7-2.2,15
	c1.3,3.3,3.8,3.6,5.9,0.8c1.9-2.6,3.5-5.5,5.2-8.2c0,162.2,0,324.5,0,487c-71,0-142,0-213.4-0.3c1.9-3.3,2.2-8.2,7.6-8.1
	c6.4,0.1,7.7-1,9.5-7.1c1.7-5.8,2.4-12.1,7.7-16.3c0.8-0.6,1-2,1.2-3.2c1.6-8,0.4-16.2,3.1-24.1c1.2-3.6-2.4-5.1-4.3-7.2
	c-1.8-1.9-3.7-1.1-5.4,0.2c-3,2.3-6.3,2.6-9.9,2.4c-4.2-0.3-8.3,0-12.2,1.6c-6.9,2.8-13.3,2.2-19.8-1.8c-6.6-4.1-13.9-7.1-20.9-10.6
	c-2-1-4.3-2.2-5.5,0.7c-1.6,4-3.1,8-1.6,12.5c2.4,7.3,4.8,14.5,8.5,21.2c3,5.4,5.7,10.9,3.1,17.4c-0.7,1.8,0,3.9,0.7,5.8
	c1.9,5.7,5.4,10.7,6.7,16.6c-70.4,0-140.7,0-211.4-0.2c-2.2-8.3-7.1-13.5-15.1-16c-13.3-4.2-14.6-6-13.7-19.8c0.2-3.3-1-5.6-3.5-7.8
	c-6.4-5.5-14.2-7.9-21.7-11.1c-5.7-2.4-9.2-6.5-9.9-12.7c-0.6-5-1.3-9.9-1.4-14.9c-0.5-18.2-20.1-31.7-36.4-30.3
	c-5.6,0.5-11.3,1-16.9,1.4c-11.6,0.8-22.3-1-30.4-10.4c-2.9-3.4-6.2-6.5-9.1-9.9c-9.1-10.6-18.8-20.2-32-25.7c-7-2.9-14-4-20.9-1.1
	c-11.2,4.7-22.2,9.8-31.6,17.9c-16.2,14.1-34.5,22.9-56.8,21.8c-13-0.6-26-0.5-38.7,4.8c-12.2,5.1-25.3,8.3-37.9,12.6
	c-14.4,4.9-29.4,8.6-44.6,5.1c-13.5-3.1-26.8-2.4-40.1,0.1c-17.5,3.3-35,6.4-52.7,8.7c-10.3,1.3-20.5,2.5-30.7-0.7
	c-6.9-2.2-14.3-0.3-21.3-1.9C440.5,836.7,439.6,837.6,438.9,838 M941.3,422.6c9.9-1.6,19.8,0,29.7,0c14.5,0,29,0,43.5,0
	c1.7,0,3.3,0,5,0.2c14.9,1.7,29.9,0.2,44.8,1.8c2.9,0.3,4.2-1.3,4.2-4.2c0-7,0.6-13.9,0.8-20.9c0.5-18.4,1.5-36.8,2-55.3
	c0.6-21.6,1.5-43.2,2.2-64.8c0.5-16.1,1.5-32.2,1.8-48.3c0.5-22.8,2.3-45.5,2.2-68.3c0-5.8-2.6-10.1-7.8-12.9c-4.1-2.3-8-4.7-12-7.1
	c-1.3-0.7-2.8-2-4-1.9c-5.5,0.9-8.6-0.3-12.6-5.3c-3.7-4.4-9-9-14.4-12.3c-4.3-2.6-8.4-5.5-12.5-8.1c-3.3-2.1-5-6-3.7-8.9
	c2.1-4.7,5.4-9.2,9.1-12.9c3.6-3.7,3.5-8.9,6.6-12.6c0.4-0.4-0.2-1.9-0.6-2.8c-3.8-8.2,1.1-16.5,10-16.2c4.9,0.2,5.5-2.4,6-6
	c0.2-1.7-0.8-4,1.3-5c4.2-2.1,5.8-6.2,8.5-9.5c2.7-3.3,1-5.4-1.6-7.4c-1.7-1.3-4.1-1.3-5.6-3.2c-1.5-1.9-3.1-3.5-5.9-2.2
	c-2.8,1.3-3.1,3.2-2.8,6.1c0.5,3.6-3.9,7.2-5.7,5.2c-3.3-3.5-6.2-7-11.7-6.2c-0.2,0-0.3-0.6-0.6-0.8c-3.6-3.5-7.4-3.5-11-0.1
	c-2.1,2-4.5,2-6.3,0.3c-6-5.9-13.7-6.7-21.5-7.9c-3.8-0.6-8.5-0.2-11.3-3c-2.5-2.4-4.3-2.3-7-1.4c-5.1,1.6-13.1-1.5-16.1-5.7
	c-1.4-1.9-2.8-5.3-5.5-4.3c-5.3,2-7.5-1.5-9.6-4.8c-2.8-4.4-6.2-5-10.6-2.7c-1.9,1-4,1.6-5.6,3.5c1.5,3.4,3.7,5.4,7.6,6.2
	c6.4,1.2,9.6,5.1,10.2,12.3c0.5,5.4-4.9,3.5-7.4,5.3c-1.9,1.4-4,2.3-6,3.5c-1.3,0.8-2.5,1.4-4.2,0.7c-3.5-1.4-7-1.3-10.8-0.5
	c-3,0.6-6.4,0.8-9.3-0.6c-7.8-3.8-11.9,5.6-18.8,5.2c-0.2,0-0.8,0.8-0.7,1.2c0.5,7-6.3,9.2-9.8,12.6c-3.6,3.5-3.6,5.4-2.1,9
	c1.4,3.4-0.3,9.1-3.6,9.3c-6.4,0.4-6.2,4.7-6.9,8.9c-0.6,3.6-1.3,6.7-5.8,8.1c-4,1.3-5.6,7.1-3.3,10.6c1.3,2.1,3.3,3.7,5,5.5
	c2.4,2.4,2.8,5,1.1,8.1c-2.5-0.3-4.7-0.9-7-1c-6.2-0.2-8,1.6-7.9,7.8c0.1,7.8,0.5,15.6,0.8,23.4c0.6,19.4,1.3,38.9,2.1,58.3
	c0.7,18.4,1.3,36.8,2,55.3c0.7,20.6,1.3,41.2,2,61.8c0.7,20.1,1.3,40.2,1.9,60.3c0.4,13.6,1.2,27.2,1.1,40.9c0,4.4,1.6,5.9,5.9,5.8
	c11.8-0.4,23.6-0.4,35.4-0.7C903.1,423.5,921.7,422.1,941.3,422.6 M1141.6,458.6c0.5-7.6,0.9-15.2,1.6-22.8c0.3-2.8-0.6-4.4-3.3-4.3
	c-5,0.1-9.9-1-14.9-1.1c-16-0.1-31.9-1.5-47.8-1.9c-19.3-0.5-38.5-2.1-57.8-2.1c-47,0.2-93.9-1.1-140.9,0.8c-9.5,0.4-19,0.2-28.5,0
	c-4.4-0.1-6,1.6-5.8,5.9c0.5,13.9,1.3,27.9,1.9,41.8c0.9,22.9,2.1,45.8,3,68.7c0.4,11.6,1.5,23.2,1.2,34.9c-0.1,3.6,1.5,5.3,5,5.1
	c5.3-0.3,10.7-0.1,15.9-1.1c8.8-1.7,18,0.7,26.6-2.6c2.6-1,5.5-0.2,8.2,1.1c6.1,3,11.9,6.7,17.5,10.5c2.1,1.4,4.5,3,6.9,1.7
	c5.1-2.8,9.6-0.7,13.4,2.1c3.4,2.5,6.4,2.8,10.2,1.7c3.7-1.1,6.7,0.1,8.9,3.6c2.5,3.8,4.6,8.1,9.2,9.9c-3,7.3-1.4,11.9,5.9,14.9
	c4.2,1.7,6.5,4.5,7.7,8.4c1.3,4.2,3.8,7.4,7.3,9.8c1.5,1.1,2.1,2.4,2.3,4.1c0.9,7.1,3.1,13.9,5.5,20.6c1.5,4.1,5.4,5.5,8.8,3.4
	c1.9-1.2,3.8-2.6,5.1-4.6c2.7-4.4,6-8.4,8.5-12.9c3.5-6.2,8.8-9.7,15.4-11.8c1.9-0.6,4.1-1,4.9-3.1c3.6-9.7,12.8-16.6,13.7-27.6
	c0-0.1,0.5-0.2,1.8-0.8c0.2,6.7,8.2,12,1.8,19.5c-0.5,0.6-0.6,1.9-0.5,2.9c0.5,4.3-1.4,7.6-4.6,10c-4.5,3.4-6.4,7.9-7.2,13.1
	c-0.5,3.3-1.1,6.5-1.4,9.8c-0.4,4.3,0.3,9.8-6.9,9.6c-1.5,0-3.5,1.4-3.1,3.8c0.3,2.2,0.9,4.2,3.5,4.9c9.1,2.5,15.7-1.3,18-10.4
	c1.3-5,2-10.3,4.9-14.9c10,10.9,10.7,17.5,3.3,29.6c-1.4,2.3-4.2,5-2.4,7.6c1.8,2.7,5.5,1.1,8.4,1c1.6-0.1,3.3-0.5,4.9-0.7
	c1.5-0.2,2.9,0.2,4.2,1.2c6.6,5.2,13.9,9.7,13.7,19.8c-0.1,3.2,1.3,6.5,2.1,9.7c0.5,1.8,1,3.8,0.2,5.4c-2.2,4.6-0.1,8.5,1.8,12.3
	c2.3,4.6,5.2,8.9,7.4,13.6c1.5,3.1,3.8,5.4,6.2,7.7c3.5,3.3,9.6,3,9.9-0.3c0.3-3.5,1.3-6.8,1.3-10.3c0.1-9.1,0.5-18.3,1-27.4
	c1.2-20.2,2.7-40.4,3.9-60.6c0.8-13.9,1.3-27.9,2.1-41.8c1.2-19.2,2.7-38.4,3.9-57.6c0.9-14.7,1-29.5,2.2-44.3
	c0.5-6.5,0.5-12.9,0.9-19.4C1139.5,489.6,1140.6,474.6,1141.6,458.6 M1255.4,720.6c8.4,0.4,16.5,2.8,25.2,1.3c3.5-0.6,9,1.3,9.3,5.7
	c0.4,5.5,2.9,10.6,2.5,16.2c-0.2,2.9,1.3,4.6,3.6,6.1c9.2,6,18.3,12.2,27.4,18.2c2.8,1.9,5.2,1.3,6.2-2.1c0.9-3.3,1.4-6.8,2-10.2
	c3.4-17.1,7.6-33.8,22-45.6c2.1-1.8,4.8-3.6,5.3-6.5c2.1-10.6,7.8-19.7,12-29.4c1.4-3.2,2.6-6.5,4.8-9.2c7.7-9.3,15.8-18.4,27-23.7
	c3.3-1.6,5.2-4,6.3-7.3c1.3-4,3.8-7.3,6.4-10.6c7-8.9,11.7-19.1,13.9-29.9c1.1-5.3,1.5-10.8,4-15.7c2.2-4.5,3.8-9.2,5.5-13.9
	c2.2-5.9,3.9-12.1,7.7-17.3c4.2-5.7,3.3-11.8,2.8-18.3c-1.8,0-3.2-0.3-4.4,0.1c-5.1,1.7-9.8,1.3-14.8-1c-5.9-2.7-10.7,1.5-15.6,4.2
	c-1.1,0.6-1,2-1.1,3.2c-0.9,6.7-2.3,7.7-8.8,5.7c-2.5-0.7-3.9-0.3-5.4,1.9c-1.9,2.7-4.6,3.6-7.8,2.3c-1.7-8.2-7.2-12.2-14.6-14.6
	c-6.6-2.1-13.2-3.5-20.2-4.2c-6.8-0.7-11.7,0.5-15.9,5.5c-2.1,2.6-4.8,3.2-8,2.7c-7.2-1.1-14.4-2.2-21.7-2.7
	c-14.4-1.1-28.6-3.3-43-4.3c-19.8-1.4-39.6-3.9-59.3-5.7c-15.3-1.4-30.7-2.7-46.1-4c-5.5-0.5-10.9-0.7-16.4-1.1
	c-2.7-0.2-4.8,0.8-4.7,3.8c0.1,3.7-0.8,7.3-1,10.9c-0.8,14.3-1.1,28.5-2.2,42.8c-0.5,6.1-0.5,12.3-0.9,18.4
	c-1.2,18.4-2.7,36.7-3.9,55.1c-0.5,7.4,6.2,12.2,13.3,9.9c3.5-1.1,6.4-0.5,9.4,1.6c4.2,3,8.3,5.9,9,11.8c0.2,2.1,1.9,4.1,3.2,6.4
	c5-4.5,9.4-1.2,13.9,0.1c3.7,1.1,5.2,3.6,3.9,7.2c-0.9,2.5-0.1,4.6,1.2,6.6c2.6,4.1,5.8,7.7,10.4,9.7c2.7,1.2,4.5,3.2,6.3,5.5
	c2.7,3.4,5.1,7,7.4,10.6c0.9,1.4,2.2,2.7,4,2.6c2-0.1,2.2-1.7,2.4-3.2c0.3-2.5,2.2-3.2,4.3-3.4c2.7-0.3,5.2,0.1,7.8,1
	C1237.8,716.7,1245.5,721,1255.4,720.6 M1315.1,766.4c-7.4-4.8-14.8-9.6-22.1-14.4c-2.6-1.7-5.7-3.7-4.8-7.4c1-3.8,0.1-7-1.1-10.5
	c-2.3-6.7-7.2-9.6-14.2-7.5c-1.8,0.5-3.5,1-5.3,0.3c-4.8-1.7-9.5-4-14.8-1.3c-0.7,0.4-2.2-0.4-3.3-0.8c-7.4-2.6-14.7-5.3-22.1-7.8
	c-3.4-1.1-6.3-1.3-7.6,3.5c-1.1,4.1-6.2,4.6-9.1,1c-2-2.6-3.8-5.5-5.4-8.4c-2.8-5.4-7.2-9.4-12.6-11.6c-6.5-2.6-9.1-7-9.3-13.7
	c-0.2-6.7-2.7-9.1-9.1-10.4c-3-0.6-4.7,2-7.5,2.4c-2.1-4.5-6.1-7.6-6.8-12.8c-0.4-2.8-7.3-6.5-10.2-5.7c-3.6,1.1-6.9,0.1-10.2-0.9
	c-7.3-2.1-8.2-1.5-8.5,6.1c-0.3,9.6-0.3,19.3-1.2,28.9c-0.6,6.3-0.5,12.6-1,18.9c-1.4,17.5-2.4,35.1-2.8,52.6
	c-0.1,6.6,9.9,13,16,10.6c2.1-0.8,4-1.3,6.2-0.4c7.5,2.9,14.8,6.4,21,11.3c6.3,5,12.2,7.4,19.3,1.8c1.5-1.2,3.6-1.7,5.5-2.4
	c6.3-2.4,11.3-6.2,15-11.9c1-1.6,1.8-3.7,4.2-3.7c3,3.1,1.3,6.2,0,9.3c-1.2,2.7-1.6,4.9,1.4,6.9c6.4,4.1,13.8,6.7,18.6,13
	c0.3,0.3,1,0.6,1.3,0.5c7.8-2.2,16.7-0.9,23.2-7.5c4.3-4.4,8.7-8.9,14.2-11.6c12.5-6.1,25.9-4.9,39.2-3.7c6.3,0.6,9.2-0.4,12.3-6.9
	C1321.1,770.6,1318.4,768.7,1315.1,766.4 M879.6,23.6c6.5,0.3,11.2-3.6,15.6-7.5c2.7-2.5,5.4-6.4,2.6-10.1
	c-2.7-3.5-6.8-2.2-10.5-0.7c-1.5,0.6-3.2,0.9-4.7,1.6c-2.8,1.5-5.5,1.4-8.6,0.6c-8.5-2.2-12.2,0.1-14.7,8.8
	c-2.1,7.4-1.2,8.7,6.2,9.1c1.8,0.1,3.2-0.8,4.7-1.4C872.9,22.8,875.8,22.2,879.6,23.6 M1030.7,695.3c-1.3,3.9,0.6,6.6,4.1,7
	c5.7,0.6,11.6,0.6,17.3,0c3.2-0.3,6.9-2.6,6.5-6.3c-0.3-3-3.4-5.7-6.9-5.4C1044.8,691.2,1037.6,691.5,1030.7,695.3 M1041.4,76.1
	c-0.9,0-1.8,0.2-2.1,1c-1.8,4.7-2.3,9.6-3.2,14.5c-0.2,1.1,0.7,1.8,1.8,1.9c3.4,0.4,6.9,0.8,10.3,1c1.4,0.1,2.6-0.4,3.4-1.7
	c1.1-1.8-2.8-14.5-4.8-15.2C1045.3,77.1,1043.7,76.7,1041.4,76.1 M1123.5,155.9c-4.4-1.4-7.7,0.7-10.7,3.5c-1.4,1.4-2.9,3-1.5,5.2
	c1.2,2,3.3,2.4,5.3,1.9c2.7-0.7,5.3-1.9,7.9-2.9c1.8-0.7,4.1-1.2,4.2-3.6C1128.8,157.1,1126.4,156.7,1123.5,155.9 M1274.4,842.9
	c1.2,2.2,2.8,4.1,5.5,2.7c2.7-1.5,3.3-4.2,2.2-6.9c-1.2-2.7-3-5.1-4.6-7.6c-1.1-1.7-2.7-2.6-4.7-1.3c-1.7,1.1-2.6,2.6-1.8,4.7
	C1272,837.1,1273.1,839.7,1274.4,842.9 M1192.5,823.2c0-1.3,0.1-2.7-0.1-4c-0.4-2.2-1.2-4.3-3.8-4.6c-2.5-0.3-3.4,1.7-4.1,3.6
	c-1.3,3.3-1.7,6.7-1,10.2c0.3,1.6,1,3.3,3,3.6c1.9,0.3,3.2-0.9,3.9-2.5C1191.3,827.7,1191.8,825.8,1192.5,823.2z"/>
<rect x="384" y="752" class="st1" width="693.5" height="226"/>
<rect x="374" y="-29" class="st1" width="289" height="191.1"/>
<rect x="1334" y="-44" class="st1" width="213" height="223"/>
</svg>
