<?xml version="1.0" encoding="utf-8"?>
<!-- Generator: Adobe Illustrator 27.3.1, SVG Export Plug-In . SVG Version: 6.00 Build 0)  -->
<svg version="1.1" id="Layer_1" xmlns="http://www.w3.org/2000/svg" xmlns:xlink="http://www.w3.org/1999/xlink" x="0px" y="0px"
	 viewBox="0 0 1920 512" style="enable-background:new 0 0 1920 512;" xml:space="preserve">
<style type="text/css">
	.st0{fill:#3B82F6;}
	.st1{fill:#FFFFFF;}
	.st2{fill:#93C5FD;}
</style>
<path class="st0" d="M1120,169c17.7,0,34.8,0,52,0c19-0.1,37,17.9,37,37.1c-0.1,87.3-0.1,174.6,0,262c0,18.9-18.6,37.1-37.1,37.1
	c-136.3-0.1-272.6-0.1-408.9-0.1c-8.7,0-10.1-1.4-10.1-10c0-48.2-0.1-96.3,0.1-144.5c0-4.2-0.8-5.8-5.4-5.6
	c-8.8,0.4-17.7,0.1-26.5,0.1c-6.1,0-8.2-2-8.2-7.9c0-95.3-0.2-190.6,0.1-286c0-13.9,8-24.5,18.6-32.9c8.6-6.8,18.4-9.3,29.5-9.3
	c112.5,0.2,225,0.2,337.4,0c20.9,0,40.3,15.3,45.1,36.1c4.2,18.1-0.1,34.5-13.9,47.5c-6.1,5.8-13.3,10.2-21.9,11.5
	c-2.4,0.4-3,1.6-3,3.7c0,19.3,0.1,38.7,0,58c0,2.7,1.1,3.4,3.6,3.3C1112.2,168.9,1115.8,169,1120,169z"/>
<path class="st1" d="M769,234c0-41.5,0.1-82.5-0.1-123.5c0-4.2,0.8-5.6,5.4-5.6c103.2,0.1,206.3,0.1,309.5,0c4,0,5.4,0.8,5.4,5.1
	c-0.2,18.2-0.2,36.3,0,54.5c0,3.4-0.9,4.6-4.4,4.5c-24.3-0.1-48.7-0.1-73,0c-2.3,0-3.8-0.5-5.1-2.8c-13.1-23.5-33-38.6-59.2-43.7
	c-27.2-5.3-52.6,0-74.7,18.2c-17.8,14.7-27.6,33.6-31.5,55.8c-0.8,4.7-0.4,9.7-0.1,14.5c0.3,4.8,3.6,6.1,8,6.1c22-0.1,44,0.1,66-0.1
	c4.8-0.1,6.1,1.1,6.1,6c-0.3,21.8-0.1,43.7-0.1,65.5c0,6.7,1.9,8.4,8.5,8.7c12.9,0.5,25.1-2.4,36.8-7.7c0.7-0.3,1.6-0.4,2.7-0.7
	c0,16.3,0,32.2,0,48.2c0,6.5-0.2,13,0.1,19.5c0.2,3.7-0.9,4.8-4.7,4.8c-15.5-0.2-31,0-46.5-0.2c-4-0.1-5,1.1-5,5
	c0.2,11.1,0,11.1,11.3,11.1c13.5,0,27,0.1,40.5-0.1c3.1,0,4.3,0.6,4.4,4.1c0.1,12,0.3,12-11.9,12c-34.3,0-68.7,0.1-103-0.1
	c-4.1,0-5.4,1-5.3,5.2c0.2,10.9,0,10.9,11,10.9c34.5,0,69,0.1,103.5-0.1c4.7,0,5.8,1.4,5.7,5.8C968.8,425,969,425,959,425
	c-8.7,0-17.3,0.1-26-0.1c-3-0.1-4,0.7-4.1,3.9c-0.2,12.2-0.3,12.2,11.7,12.2c8.2,0,16.3,0.1,24.5-0.1c3.1-0.1,3.9,1,3.9,4
	c0.2,12.1,0.3,12.1-11.8,12.1c-29.2,0-58.3,0.1-87.5-0.1c-3.6,0-4.9,0.7-4.9,4.6c0.1,11.5-0.1,11.5,11.4,11.5c29.3,0,58.7,0,88,0
	c3.3,0,5.3,0.3,6.1,4.5c0.7,3.8,3.3,7.3,5.3,11.6c-2.3,0-3.9,0-5.5,0c-65.2,0-130.3-0.1-195.5,0.1c-5.1,0-5.9-1.6-5.9-6.2
	C769,400.1,769,317.3,769,234z"/>
<path class="st2" d="M1141,185c9.5,0,18.5-0.1,27.5,0c14.1,0.2,24.5,10.3,24.5,24.3c0.1,85.1,0.1,170.3,0,255.4
	c0,14-10.4,24.2-24.5,24.2c-53,0.1-106,0.1-158.9,0c-14.1,0-24.4-10.3-24.5-24.3c-0.1-85.1-0.1-170.3,0-255.4
	c0-14.2,10.5-24.2,25-24.2C1053.5,185,1097,185,1141,185z"/>
<path class="st2" d="M1045,25c17.2,0,33.8,0,50.5,0c19.2,0.1,33.6,13.9,33.5,32.2c-0.1,18.1-14.4,31.7-33.5,31.7
	c-97.6,0-195.3,0-292.9,0c-1.4,0-3,0.4-4.7-0.7c14.9-20.7,15.1-41.5-0.6-63.3C880.2,25,962.3,25,1045,25z"/>
<path class="st1" d="M729,225c0-54.6-0.1-108.8,0.1-162.9c0-10,1.9-19.7,9.5-27.2c9.8-9.6,22-11.6,33-7.5c13.5,5,20,16.9,20.6,29.1
	c0.7,16.1-13.2,31-28.9,31.5c-8.7,0.3-10.3,2.5-10.3,11.5c0,74.3,0,148.6,0,222.9c0,7.5,0.9,6.5-6.7,6.5c-3.7,0-7.4-0.3-11,0.1
	c-4.9,0.5-6.4-0.9-6.4-6.1C729.1,290.5,729,258,729,225z"/>
<path class="st1" d="M937,222.1c-1.1-7.3,1.8-12.8,5.5-18.3c10.7-16.3,21-32.8,31.7-49.7c6.1,5,11,10.6,15.2,16.8
	c1.1,1.7,0.5,2.5-1.1,3.5c-13.6,8.2-19.7,20.3-19.4,36.2c0.4,17.6,0,35.3,0.2,52.9c0,3.8-1.4,5.8-4.6,7.3c-7.4,3.6-14.9,6.7-23,8.6
	c-4.7,1.1-4.6-0.6-4.6-3.9C937,257.8,937,240.2,937,222.1z"/>
<path class="st1" d="M907.7,158.4c3.3,13.2,6.2,26.2,9.6,39c0.9,3.3,0.1,3.7-2.7,3.7c-17.6,0-35.2,0-52.9,0c-2.8,0-3.7-0.1-3-3.8
	c4.3-23.8,17.8-40.4,38.3-52.2c0.3-0.2,0.6-0.3,0.9-0.4c1.8-0.7,3.7-1.4,5.7-2.1C904.9,147.7,906.2,152.8,907.7,158.4z"/>
<path class="st1" d="M943.8,169.8c-3.7,5.8-7.2,11.3-11.3,17.8c-4.3-17.1-8.3-33-12.3-49.2c12.1-1.3,23.5-0.5,34.6,4
	c3.5,1.4,5.5,2.7,2.4,6.9C952.3,155.7,948.3,162.7,943.8,169.8z"/>
<path class="st0" d="M913,261c0,17.5,0,34.5,0,51.5c0,6.5-2.1,8.4-8.7,8.5c-21.2,0.6-39.5-6.7-55.9-20
	c-17.9-14.5-27.6-33.6-31.3-55.9c-0.8-4.5-0.3-9.3-0.1-14c0.3-4.8,3.5-6.2,7.8-6.2c20,0.1,40,0,60,0c6.8,0,13.7-0.1,20.5,0
	c5.4,0.1,7.5,2.1,7.6,7.5C913.1,241.8,913,251.2,913,261z"/>
<path class="st0" d="M801.6,472.4c-0.4-1.3-0.6-2.3-0.5-3.3c0.6-7.4,0.4-13.8-7.9-17.9c-4.8-2.3-7.3-7.9-8.1-13.6
	c-0.5-3.2,0.2-5.1,4.1-4.7c2.5,0.3,5,0.1,7.5,0c2.7,0,5.1-0.6,6,3.7c0.7,3.3,4.6,3.9,8,3.2c3.1-0.6,5-2.5,5.3-5.6
	c0.3-3.3-0.3-6.4-3.9-7.7c-1.7-0.6-3.5-1.5-5.2-1.5c-10.5,0.4-20-9.3-21.8-18.3c-2.4-12.1,2.4-22.1,13.2-27.8c2.1-1.1,3-2.4,2.7-4.6
	c-0.1-0.5,0-1,0-1.5c0-12.9,0-12.9,13-11.9c2.4,0.2,3.3,1.1,3,3.3c-0.1,0.7,0,1.3,0,2c-0.2,6.5-1.1,12.5,7.3,16.1
	c5.4,2.3,8.4,8.6,8.8,15.2c0.1,2.5-0.6,3.7-3.3,3.5c-2.8-0.2-5.7-0.2-8.5,0c-3.1,0.3-5.1-0.5-6.2-3.7c-1.4-4-5.3-3.6-8.5-3.2
	c-2.4,0.3-4.2,2.2-4.4,4.7c-0.3,3.3-0.4,6.8,3.6,8.4c1.7,0.7,3.4,1.8,5.1,1.7c10.7-0.6,20.1,9.3,22.1,18.1
	c2.5,11.3-1.6,21.4-12.1,27.5c-3.5,2-3.9,4.1-3.8,7.4c0.1,11.2,0,11.2-11.1,11.2C804.5,473,803.2,472.8,801.6,472.4z"/>
<path class="st0" d="M870,425c13.1,0,25.8,0.1,38.4-0.1c3.3,0,4.7,0.6,4.7,4.3c0,11.8,0.2,11.8-11.6,11.8c-15.8,0-31.6-0.1-47.4,0.1
	c-3.7,0-5.2-0.6-5.2-4.8c0.2-11.3,0-11.3,11.1-11.3C863.2,425,866.3,425,870,425z"/>
<path class="st0" d="M1124,201c14.5,0,28.5,0,42.5,0c7.8,0,10.5,2.7,10.5,10.5c0,19.7,0,39.3,0,59c0,7.8-2.7,10.5-10.6,10.5
	c-51.6,0-103.3,0-154.9,0c-7.8,0-10.5-2.7-10.5-10.5c0-19.7,0-39.3,0-59c0-7.8,2.7-10.5,10.6-10.5C1048.9,201,1086.2,201,1124,201z"
	/>
<path class="st0" d="M1148,377c-4,0-7.5,0.1-11-0.1c-4.8-0.3-7.9-3.2-7.9-8c-0.1-21.3-0.1-42.6,0-63.9c0-4.8,3.2-7.9,7.9-8
	c10.7-0.2,21.3-0.2,32,0c4.7,0.1,7.9,3.2,7.9,7.9c0.1,21.3,0.1,42.6,0,63.9c0,4.9-3.3,7.9-8.4,8C1161.8,377.1,1155.2,377,1148,377z"
	/>
<path class="st0" d="M1129,430c0-9.5-0.1-18.5,0-27.5c0.1-6.5,3-9.5,9.5-9.5c9.7-0.1,19.3-0.1,29,0c6.5,0.1,9.5,3,9.5,9.5
	c0.1,20.3,0.1,40.6,0,60.9c0,6.5-3,9.5-9.5,9.5c-9.7,0.1-19.3,0.1-29,0c-6.5-0.1-9.4-3-9.5-9.5C1128.9,452.5,1129,441.5,1129,430z"
	/>
<path class="st0" d="M1085,345c-4.2,0-7.8,0.1-11.5,0c-5.3-0.2-8.4-3.2-8.5-8.5c-0.2-10.3-0.1-20.6,0-31c0.1-5.3,3.1-8.4,8.5-8.5
	c10.3-0.2,20.6-0.1,31,0c5.3,0.1,8.4,3.1,8.5,8.5c0.2,10.3,0.2,20.6,0,31c-0.1,5.3-3.2,8.3-8.5,8.5
	C1098.2,345.1,1091.8,345,1085,345z"/>
<path class="st0" d="M1006.1,344.3c-3.8-1.8-5.1-4.6-5.1-8.3c0-10-0.1-20,0-30c0.1-5.9,3-9,8.9-9.1c10-0.1,20-0.1,30,0
	c5.9,0.1,8.9,3.1,9,9c0.1,10,0.1,20,0,30c-0.1,5.3-2.8,8.8-7.5,8.9C1029.8,345,1018.1,345.6,1006.1,344.3z"/>
<path class="st0" d="M1049,372.2c0,9.3,0,18.1,0,26.9c-0.1,6.8-2.9,9.8-9.7,9.8c-9.7,0.1-19.3,0.1-29,0c-6.2-0.1-9.2-3-9.3-9.2
	c-0.1-9.8-0.1-19.6,0-29.5c0.1-6.2,3-9.2,9.2-9.3c9.3-0.1,18.6,0,28,0C1046.3,361,1048.8,363.5,1049,372.2z"/>
<path class="st0" d="M1077.2,409c-9.9-0.1-12.2-2.3-12.2-11.8c0-8.8-0.1-17.6,0-26.5c0.1-6.8,2.9-9.6,9.8-9.7c9.5-0.1,19-0.1,28.5,0
	c6.8,0.1,9.6,3,9.7,9.8c0.1,9.5,0.1,19,0,28.5c-0.1,6.7-3,9.6-9.9,9.7C1094.6,409,1086.1,409,1077.2,409z"/>
<path class="st0" d="M1078.1,425c8.6,0,16.8,0,25,0c6.9,0,9.8,2.9,9.9,9.6c0.1,9.7,0.1,19.3,0,29c-0.1,6.4-3,9.3-9.6,9.4
	c-9.5,0.1-19,0.1-28.5,0c-7.1,0-9.8-2.9-9.9-10.1c0-8.3,0-16.6,0-25C1065,426.9,1066.9,425,1078.1,425z"/>
<path class="st0" d="M1001,443c0-3.7-0.1-6.8,0.1-10c0.3-4.8,3.2-7.9,7.9-8c10.6-0.2,21.3-0.2,32,0c4.7,0.1,7.9,3.2,8,7.9
	c0.2,10.6,0.2,21.3,0,32c-0.1,4.7-3.2,7.9-7.9,8c-10.6,0.2-21.3,0.2-32,0c-4.9-0.1-7.9-3.3-8-8.4C1000.9,457.5,1001,450.5,1001,443z
	"/>
<path class="st2" d="M837.1,256.8c-1.4-4.3-2.5-8.3-3.1-12.5c-0.3-2.3,0.5-3.4,3-3.3c19,0,37.9,0,56.9,0c2.4,0,3.2,1,3.2,3.3
	c0,18.8-0.1,37.6,0,56.4c0,4.7-3.1,3.5-5.5,3c-23.6-5.1-40.9-18.3-51.6-40.1C838.9,261.5,838.1,259.3,837.1,256.8z"/>
<path class="st1" d="M1087,217c23.3,0,46.1,0.1,69-0.1c3.7,0,5.2,0.6,5.1,4.8c-0.3,12.8-0.2,25.7,0,38.5c0.1,3.6-0.7,4.9-4.6,4.9
	c-45-0.1-89.9-0.1-134.9,0c-3.3,0-4.7-0.6-4.6-4.3c0.2-13.2,0.2-26.3,0-39.5c-0.1-3.7,1.3-4.3,4.6-4.3
	C1043.2,217.1,1064.8,217,1087,217z"/>
<path class="st1" d="M1145,322.1c0-9.1,0-9.1,8.7-9.1c7.3,0,7.3,0,7.3,7.5c0,12-0.1,24,0.1,35.9c0,3.3-0.6,4.7-4.3,4.7
	c-11.8,0-11.8,0.2-11.8-11.6C1145,340.5,1145,331.5,1145,322.1z"/>
<path class="st1" d="M1161,435c0,6.5-0.1,12.5,0,18.5c0,2.4-0.6,3.5-3.3,3.6c-12.7,0.7-12.7,0.8-12.7-12.1c0-10.5,0.1-21-0.1-31.4
	c-0.1-3.3,0.7-4.6,4.3-4.6c11.7,0,11.7-0.2,11.7,11.6C1161,425.2,1161,429.8,1161,435z"/>
<path class="st1" d="M1081,324.8c0-12.4,0-12.3,12.4-11.9c2.9,0.1,3.7,1,3.6,3.8c-0.6,15.3,3,11.8-12.5,12.3
	C1081.6,329.1,1080.6,328,1081,324.8z"/>
<path class="st1" d="M1017.1,327.6c-0.1-1.3-0.1-2.1-0.1-3c-0.1-12.9-0.1-12.8,13.1-11.7c2.1,0.2,3.1,0.7,2.9,2.9c0,0.5,0,1,0,1.5
	c-0.4,3.7,1.8,9.5-0.9,10.8C1027.8,330.2,1022.2,329.8,1017.1,327.6z"/>
<path class="st1" d="M1017,381.2c0.2-1.7-0.5-3.8,1.1-3.9c4.6-0.3,9.3-0.1,13.9,0c0.3,0,0.7,0.7,0.8,1.1c0.2,0.5,0.1,1,0.2,1.5
	c1.3,13,0.8,13.5-12.1,13.2c-3-0.1-4.3-0.8-4-3.9C1017.2,386.7,1017,384.2,1017,381.2z"/>
<path class="st1" d="M1082.4,392.9c-2.3-4.7-1.2-9.5-1.2-14.2c0-2.5,2.6-1.7,4-1.5c3.9,0.6,9.3-2.4,11.4,1.6
	c1.7,3.4,0.5,8.5,0.3,12.8c-0.1,2-1.8,1.5-3.1,1.6C1090.1,393,1086.5,393,1082.4,392.9z"/>
<path class="st1" d="M1097,448c0,9,0,9-8.3,9c-7.7,0-7.7,0-7.7-7.5c0-8.5,0-8.5,8.3-8.5c0.3,0,0.7,0,1,0
	C1097.9,441.1,1096.9,440.2,1097,448z"/>
<path class="st1" d="M1032.5,441.6c0.4,1.3,0.5,2.3,0.5,3.3c0.2,13.4,0.2,13.3-13.1,12.2c-2.1-0.2-3.1-0.8-2.9-3c0-0.2,0-0.3,0-0.5
	C1017.7,438.3,1013,441.1,1032.5,441.6z"/>
</svg>
