<?xml version="1.0" encoding="utf-8"?>
<!-- Generator: Adobe Illustrator 27.3.1, SVG Export Plug-In . SVG Version: 6.00 Build 0)  -->
<svg version="1.1" id="Layer_1" xmlns="http://www.w3.org/2000/svg" xmlns:xlink="http://www.w3.org/1999/xlink" x="0px" y="0px"
	 viewBox="0 0 612 540" style="enable-background:new 0 0 612 540;" xml:space="preserve">
<style type="text/css">
	.st0{fill:#3B82F6;}
	.st1{fill:#878787;}
	.st2{fill:#B7B7B7;}
	.st3{fill:#E2E2E2;}
	.st4{fill:#CBCBCB;}
	.st5{fill:#F8F8F8;}
	.st6{fill:#E6E6E6;}
	.st7{fill:#A9A9A9;}
	.st8{fill:#909090;}
	.st9{fill:#6E6E6E;}
	.st10{fill:#999999;}
</style>
<path class="st0" d="M153,1c102.4,0,204.7,0,307.6,0.4c1,0.8,1.4,1.4,2,1.5c14,3.9,26.3,10.6,35.8,21.9
	c9.4,11.2,15.8,23.6,15.5,39.1c-0.1,137.1-0.1,273.6,0,410.2c0,1.7,0.1,3.3,0.1,5.4c-1.8,7-3,13.8-5.4,20.2c-6.3,17-19,28-35,35.5
	c-3.9,1.8-7.7,3.8-11.6,5.7c-3.4,0-6.7,0-10.7-0.4c-1.1-0.5-1.6-0.6-2.1-0.6c-95,0-190.1,0-285.1,0c-0.7,0-1.5,0.7-2.2,1.1
	c-3,0-6.1,0-9.6-0.3c-1.1-0.9-1.7-2-2.5-2.1c-11.8-2.2-21.1-8.7-29.5-16.7c-12.1-11.5-18.5-26-20.3-43c0.1-2.5,0-4.5,0-6.5
	c0-134.6,0-269.2,0-403.7c0-1.7-0.1-3.3-0.1-5.4c1.1-14.1,6-26.4,14.4-37.1c9.1-11.6,21.4-18.5,35.2-23C150.9,2.8,151.9,1.7,153,1
	 M458.7,63.2c-2.5-2.4-5-4.8-8.1-7.8c-2.5-0.2-4.9-0.6-7.4-0.6c-90.8,0-181.6,0-272.3,0c-1.8,0-3.7-0.1-5.5,0.2
	c-0.8,0.2-1.5,1.3-2.9,2c-4.6,1.2-6.7,4.5-8.4,9.1c-0.1,2-0.4,3.9-0.4,5.9c0,88.6,0,177.3,0,265.9c0,44,0,88,0.1,131.9
	c0,1.7,0.8,3.4,1.3,5.9c1,5,3.4,8.7,9,10.1c2.1,0.3,4.1,1,6.2,1c91,0,182.1,0,273.1,0c1.5,0,3,0.1,4.5-0.1c0.5-0.1,0.8-1.1,2-1.6
	c0.6,0.1,1.1,0.1,1.9,0.3c0.3,0,0.7,0,1.3-0.6c2.3-3.2,4.6-6.3,7.2-10.5c0-135,0-270,0-405C460.3,67.4,459.4,65.6,458.7,63.2z"/>
<path class="st1" d="M162.5,541c0.3-0.4,1-1.1,1.7-1.1c95,0,190.1,0,285.1,0c0.5,0,1,0.1,1.6,0.6C355,541,259,541,162.5,541z"/>
<path class="st2" d="M164,485.4c1.1-0.5,2.3-0.5,3.5-0.5c93.5,0,187,0,281,0.1c0.1,0.6-0.2,1.7-0.7,1.7c-1.5,0.2-3,0.1-4.5,0.1
	c-91,0-182.1,0-273.1,0C168.2,486.8,166.1,486.2,164,485.4z"/>
<path class="st2" d="M100.2,478.9c-0.5-1-1.1-2.6-1.1-4.1c0-135.5,0-271.1,0-406.6c0-1.3,0.2-2.6,0.7-4.2c0.4,1.4,0.5,3.1,0.5,4.7
	c0,134.6,0,269.2,0,403.7C100.2,474.4,100.3,476.4,100.2,478.9z"/>
<path class="st2" d="M513.9,63.9c0.4,0.9,1.1,2.2,1.1,3.6c0.1,136.6,0.1,273.2,0.1,409.7c0,0.5-0.1,1-0.6,1.6
	c-0.4-1.5-0.5-3.1-0.5-4.8C513.8,337.6,513.8,201,513.9,63.9z"/>
<path class="st3" d="M460.2,474.7c-0.5-1.4-1.1-3.2-1.1-5.1c0-133.3,0-266.6-0.1-399.9c0-1.8-0.3-3.6-0.2-5.7
	c0.7,1.6,1.5,3.4,1.5,5.3C460.3,204.3,460.3,339.3,460.2,474.7z"/>
<path class="st3" d="M154.5,66.1c0.5,135.9,0.5,272,0.5,408.4c-0.4-1.2-1.3-2.9-1.3-4.6c-0.1-44-0.1-88-0.1-131.9
	c0-88.6,0-177.3,0-265.9C153.7,70.1,153.9,68.1,154.5,66.1z"/>
<path class="st4" d="M450.9,55.7C431.6,56,412,56,392.4,56c-75.2,0-150.5,0-225.7,0c-1,0-1.9,0.2-3.2,0.6c0.4-0.4,1-1.5,1.9-1.6
	c1.8-0.3,3.6-0.2,5.5-0.2c90.8,0,181.6,0,272.3,0C445.6,54.8,448.1,55.2,450.9,55.7z"/>
<path class="st2" d="M451.6,485.3c0.1,0.2,0.4,0.3,0.9,0.2C452.4,485.4,452.1,485.3,451.6,485.3z"/>
<path class="st0" d="M180.9,106.2c1.6-9.4,9.1-16.6,20.3-18.8c23.2-0.2,45.6-0.2,68-0.2c47.4,0,94.8-0.1,142.2-0.1
	c11.3,1.9,19.1,8,22.3,19.7c0.1,1.9,0.4,3.1,0.7,4.9c0,14.7,0,28.9-0.2,43.5c-0.6,2.9-0.9,5.5-1.2,8c-4.6,8.7-11.2,14.8-21.6,16.5
	c-0.8-0.3-1.2-0.3-2-0.4c-68.7,0-137,0-205.5-0.2c-1.9-0.2-3.5-0.2-5.1-0.1c-6.6-2-11.8-5.9-15.3-12.4c-0.3-0.7-0.5-0.8-0.8-0.8
	c-0.1-0.3-0.3-0.6-0.6-1.7c-1-3.6-1.8-6.4-2.6-9.7c0-14.7,0-28.9,0.2-43.4C180.3,109.1,180.6,107.6,180.9,106.2z"/>
<path class="st0" d="M405.5,455c0,0,0,0-0.5-0.2c-13.4-0.1-26.4,0-39.4,0.2c0,0,0,0-0.1-0.3c-1.2-0.8-2.4-1.2-3.5-1.6
	c-1.5-1.1-3.1-2.1-4.8-3.9c-0.8-2-1.6-3.3-2.3-4.7c0,0,0,0,0.2-0.5c0.2-43.3,0.2-86.1,0.2-128.9c0-1.2-0.2-2.3-0.3-3.5
	c0,0,0,0,0.3-0.1c0.7-1.1,1.1-2.2,1.5-3.3c0.6-1.3,1.3-2.5,2.4-4.1c2.3-1.1,4.1-1.9,6.4-2.6c13.7,0,26.9,0,40.5,0.2
	c0.9,0.2,1.4,0.2,1.9,0.2c0,0-0.1,0,0,0.2c0.3,0.4,0.6,0.6,0.9,0.7c2,2.3,4,4.5,6,7.6c-0.1,34.6-0.1,68.3,0,102.1
	c0,1.8,0.2,3.6,0.3,5.9c0,8.7,0,17-0.1,25.7c0.2,0.9,0.6,1.4,1,1.9c-2.4,2.6-4.7,5.1-7.7,7.6C407,454.1,406.2,454.6,405.5,455z"/>
<path class="st0" d="M203.8,273c-1.4-1.8-2.8-3.7-4.4-6.1c-0.3-1.4-0.5-2.2-0.7-3.4c0-14.4,0-28.4,0.1-42.7c0.2-1.2,0.2-2,0.2-2.8
	c0.5-0.6,0.9-1.1,1.9-2c0.7-0.9,0.8-1.5,1-2c0,0,0,0.1,0.3,0.1c0.8-0.4,1.3-0.7,1.7-1.1c0.1-0.2,0.2-0.5,0.9-0.6
	c0.7-0.4,0.9-0.8,1-1.2c0,0,0,0,0.4,0.3c15.5,0.3,30.6,0.2,45.7,0.2c1.6,1.9,3.3,3.8,5,6.4c0.7,1.7,1.3,2.6,1.9,3.6
	c0,0,0,0.1-0.2,0.6c-0.1,14.1,0,27.7,0.1,41.3c0,0,0,0-0.3,0.2c-0.5,0.7-0.6,1.2-0.7,1.8c0.3,5.5-3.6,7.1-8.5,8.5
	c-14.9,0-28.9,0-43,0.1c0,0-0.1,0.1-0.1-0.3C205.4,273.1,204.6,273.1,203.8,273z"/>
<path class="st0" d="M327.5,455c0,0,0,0-0.5-0.2c-13.8-0.1-27.1,0-40.5,0.2c0,0,0,0,0-0.3c-1.8-1.1-3.6-1.8-5.4-2.6
	c-0.3-0.2-0.6-0.4-1.1-1.1c-0.5-1-0.7-1.4-1-1.9c0,0-0.1-0.1-0.2-0.4c-0.7-1-1.3-1.6-1.9-2.2c0,0,0,0,0.2-0.5
	c0.1-15.8,0-31.2-0.1-46.5c0,0,0,0,0.4,0.1c0.6-0.5,0.8-1,1-1.6c1.6-1.9,3.2-3.7,5.5-5.6c1.5-0.2,2.3-0.4,3.6-0.6
	c13.4,0,26.4,0,39.7,0.1c0.5,0.2,0.8,0.1,1,0.1c3.6,0.6,6.6,1.9,7.7,6.5c0.4,0.9,0.7,1.2,1.1,1.4c0,0,0,0-0.2,0.4
	c-0.1,15.3,0,30.1,0.1,45c0,0,0,0.1-0.4,0.3c-0.5,1.5-0.5,2.7-0.6,3.9c-1.8,1.2-3.6,2.5-6.1,3.7C328.7,453.8,328.1,454.4,327.5,455z
	"/>
<path class="st0" d="M355,263.5c0,0,0-0.1,0.2-0.5c0.1-14.1,0-27.7-0.1-41.3c0,0,0-0.1,0.3-0.1c0.8-1.2,1.2-2.3,1.6-3.4
	c1.2-1.8,2.4-3.7,4.2-5.7c0.7-0.6,0.8-1,0.8-1.4c0,0,0,0,0.3,0.4c15,0.3,29.7,0.2,44.6,0.4c0.7,0.5,1.3,0.8,1.9,1.1
	c1.7,1.4,3.5,2.7,5.2,4.8c0.4,1.6,0.9,2.5,1.3,3.9c0,14.4,0,28.4-0.2,42.6c-0.1,1.2-0.1,2.2-0.1,3.1c-0.3,0.5-0.7,1.1-1.4,1.9
	c-0.8,0.9-1.2,1.4-1.7,1.9c0,0,0-0.1-0.2,0c-0.8,0.4-1.3,0.7-1.8,0.9c0,0,0.1-0.1-0.2,0.2c-3.9,0.7-7.4,1.4-11,1.5
	c-11.7,0.2-23.5,0.2-35.2,0.3c0,0,0,0,0-0.4c-0.9-0.5-1.7-0.6-2.5-0.6c-1.6-2-3.2-4-4.7-6.7C355.8,264.8,355.4,264.1,355,263.5z"/>
<path class="st0" d="M204.7,454c-1.8-2-3.5-4-5.3-6.7c-0.2-1.2-0.4-1.8-0.6-2.8c0-14.8,0-29.1,0.2-43.7c0.2-0.8,0.2-1.3,0.2-1.8
	c2-2.2,4-4.4,6.7-6.6c1.5-0.2,2.3-0.4,3.6-0.5c13.4,0,26.4,0,39.7,0.1c0.8,0.1,1.3,0.1,1.7,0c0.6,0.4,1.2,0.8,2.1,1.5
	c0.8,0.7,1.2,1.1,1.7,1.5c0.3,0.2,0.7,0.4,1.2,1.3c1.2,2.2,2.1,3.8,3.1,5.4c0,0,0,0-0.2,0.5c-0.1,14.5,0,28.4,0.1,42.4
	c0,0,0,0-0.3,0c-0.8,1.1-1.2,2.3-1.6,3.5c0,0.5-0.1,1-0.4,1.9c-0.8,0.6-1.2,0.9-1.7,1.2c0,0,0,0-0.2,0.1c-0.4,0.4-0.6,0.7-0.8,0.9
	c0,0,0-0.1-0.2,0.2c-1.9,1.1-3.6,2-5.3,2.8c0,0,0,0-0.5-0.3c-13.4-0.1-26.4,0-39.3,0.2c0,0,0,0.1-0.1-0.3
	C207.3,454.2,206,454.1,204.7,454z"/>
<path class="st0" d="M336,358.2c-2.3,1.9-4.5,3.8-7.5,5.7c-1,0.1-1.3,0.2-2,0.3c-13.4,0-26.4,0-39.5-0.2c-1.2-0.2-2.2-0.1-3.1-0.1
	c-1.8-1.7-3.6-3.3-5.4-5.7c-0.5-1.1-0.9-1.4-1.4-1.8c0,0,0,0,0.2-0.5c0.1-15.8,0-31.1-0.1-46.4c0,0,0,0,0.4-0.1
	c0.5-0.7,0.5-1.3,0.6-1.9c1.5-1.6,3-3.3,5-5.1c1.7-0.4,2.9-0.7,4.6-0.9c13.3,0,26.2,0,39.5,0.2c1,0.2,1.6,0.3,2.2,0.3
	c0.4,0.3,0.8,0.5,1.6,1.2c0.9,0.5,1.5,0.7,2.1,0.8c0.3,0.1,0.5,0.2,0.8,1c0.8,1,1.4,1.4,2,1.9c0,0,0,0.3-0.1,1
	c0.3,1,0.8,1.3,1.2,1.7c0,0,0,0-0.2,0.5c-0.1,14.7,0,29,0.1,43.3c0,0,0.1,0.1-0.2,0.3C336.3,355.3,336.1,356.8,336,358.2z"/>
<path class="st0" d="M335.1,268.8c-2.3,1.7-4.5,3.5-7.6,5.1c-14.7-0.1-28.6,0-42.5,0c-1.6-1-3.2-2-5-3.6c-0.8-1.2-1.4-1.7-2-2.3
	c0,0,0,0,0.2-0.4c-0.3-1-0.7-1.6-1.2-2.2c0,0,0-0.1,0.2-0.6c0.1-15.4,0-30.3-0.1-45.3c0,0,0,0,0.4-0.2c0.5-0.8,0.5-1.4,0.6-1.9
	c1.5-1.7,3.1-3.3,5.3-5.3c16.3-0.3,32-0.3,47.6-0.3c1,0.9,1.9,1.8,3.1,3.3c0.7,0.9,1.2,1.2,1.7,1.5c0,0,0.1,0.5,0,1.1
	c0.4,1,0.8,1.4,1.2,1.7c0,0,0,0-0.2,0.5c-0.1,15.4,0,30.4,0.1,45.3c0,0,0,0-0.3,0C335.9,266.5,335.5,267.7,335.1,268.8z"/>
<path class="st0" d="M252,303c1.5,1.1,3.1,2.1,4.7,3.8c0.8,2,1.6,3.4,2.3,4.7c0,0,0,0-0.2,0.5c-0.1,14.4,0,28.4,0.1,42.3
	c0,0,0,0-0.4,0.2c-0.5,0.7-0.6,1.3-0.6,1.8c-2,2.5-4.1,5-6.7,7.4c-1.5,0.1-2.5,0.3-3.9,0.5c-13.1,0-25.7,0-38.6-0.2
	c-1.6-0.2-2.9-0.2-4.3-0.1c-1.7-2.2-3.3-4.3-5.1-7.1c-0.3-1.4-0.5-2.2-0.7-3.4c0-14.4,0-28.4,0.3-42.7c0.2-0.8,0.2-1.3,0.2-1.8
	c1.5-1.9,3-3.9,5.1-6c1.7-0.6,2.8-1,4.3-1.4c13.7,0,26.9,0,40.5,0.2c0.9,0.2,1.4,0.2,1.9,0.3c0,0-0.1,0,0,0.2
	C251.4,302.6,251.7,302.8,252,303z"/>
<path class="st5" d="M204.2,179.3c68.3,0,136.5,0,205.1,0.2c0.4,0.2,0.7,0.5,0.7,0.5c-1.2,0.3-2.3,0.9-3.5,0.9
	c-66.9,0-133.8,0-200.7,0c-0.5,0-1-0.1-1.5-0.7C204.3,179.8,204.2,179.3,204.2,179.3z"/>
<path class="st2" d="M411.1,86.7c-47.1,0.4-94.5,0.4-141.9,0.5c-22.4,0-44.9,0-67.8-0.1c0.7-0.4,1.9-1,3-1c67.6,0,135.3,0,202.9,0
	C408.6,86,409.7,86.2,411.1,86.7z"/>
<path class="st6" d="M354.7,311.9c0.5,0.9,0.7,2,0.7,3.2c0,42.8,0,85.6-0.2,128.9c-0.5-0.7-1.2-1.9-1.2-3.1
	c-0.1-42.2,0-84.5,0-126.7C354,313.5,354.2,312.8,354.7,311.9z"/>
<path class="st7" d="M415.3,418.1c-0.1-1.8-0.4-3.6-0.4-5.4c0-33.7,0-67.5,0-101.7c0.7,2.3,2,5,2,7.8c0,6.9-0.8,13.8-0.8,20.8
	c-0.1,25.8,0,51.6-0.2,78.1C415.7,418.3,415.3,418.1,415.3,418.1z"/>
<path class="st3" d="M330.8,211.5c-15.5,0.4-31.2,0.4-47.3,0.4c0.5-0.7,1.5-1.9,2.5-1.9c14.2-0.1,28.4-0.1,42.6-0.1
	C329.3,210,330,210.7,330.8,211.5z"/>
<path class="st5" d="M179.6,111.2c0,14.2,0,28.5-0.2,43.1c-0.2,0.4-0.4,0.7-0.4,0.7c-0.3-0.6-0.9-1.3-0.9-1.9
	c0-13.9,0.1-27.8,0.6-41.7C179.2,111.3,179.6,111.2,179.6,111.2z"/>
<path class="st5" d="M198.8,401.1c0,14.3,0,28.6-0.2,43.3c-0.3,0.4-0.7,0.7-0.7,0.7c-0.3-0.7-0.9-1.3-0.9-2
	c0-13.9,0.1-27.8,0.7-41.8C198.3,401.2,198.8,401.1,198.8,401.1z"/>
<path class="st5" d="M434.4,154.8c0-14.2,0-28.5,0.2-43.1c0.2-0.4,0.4-0.7,0.4-0.7c0.3,0.6,0.9,1.3,0.9,1.9
	c0,13.9-0.1,27.8-0.6,41.7C434.8,154.7,434.4,154.8,434.4,154.8z"/>
<path class="st5" d="M198.8,311.1c0,14,0,27.9-0.2,42.3c-0.3,0.4-0.6,0.7-0.6,0.7c-0.3-0.7-0.9-1.3-0.9-2c0-13.6,0.1-27.1,0.7-40.8
	C198.3,311.2,198.8,311.1,198.8,311.1z"/>
<path class="st5" d="M415.3,263.9c0-14-0.1-27.9,0.2-42.3c0.3-0.4,0.6-0.7,0.6-0.7c0.3,0.7,0.9,1.3,0.9,2c0,13.6-0.1,27.1-0.7,40.8
	C415.7,263.8,415.3,263.9,415.3,263.9z"/>
<path class="st5" d="M198.7,221.1c0,14,0.1,27.9-0.2,42.3c-0.3,0.4-0.6,0.7-0.6,0.7c-0.3-0.7-0.9-1.3-0.9-2
	c0-13.6,0.1-27.1,0.7-40.8C198.3,221.2,198.7,221.1,198.7,221.1z"/>
<path class="st5" d="M405.8,301.6c-13.2,0-26.5,0-40.1-0.2c-0.4-0.2-0.7-0.4-0.7-0.4c0.6-0.3,1.3-1,1.9-1c12.9,0,25.8,0.1,38.7,0.6
	C405.7,301.2,405.8,301.6,405.8,301.6z"/>
<path class="st5" d="M248.8,301.6c-13.2,0-26.5,0-40.1-0.2c-0.4-0.2-0.7-0.4-0.7-0.4c0.7-0.3,1.3-0.9,2-0.9
	c12.9,0,25.8,0.1,38.7,0.6C248.7,301.2,248.8,301.6,248.8,301.6z"/>
<path class="st5" d="M287.1,364.3c12.9,0,25.9,0,39.2,0.2c0.4,0.2,0.7,0.6,0.7,0.6c-0.7,0.3-1.3,0.9-2,0.9
	c-12.6,0-25.1-0.1-37.7-0.7C287.3,364.7,287.1,364.3,287.1,364.3z"/>
<path class="st5" d="M326.8,301.6c-12.9,0-25.8,0-39.1-0.2c-0.4-0.2-0.7-0.4-0.7-0.4c0.6-0.3,1.3-1,1.9-1c12.6,0,25.2,0.1,37.7,0.6
	C326.7,301.2,326.8,301.6,326.8,301.6z"/>
<path class="st5" d="M248.9,391.7c-13,0-25.9,0.1-39.3-0.2c-0.4-0.3-0.6-0.7-0.6-0.7c0.7-0.3,1.3-0.9,2-0.9
	c12.6,0,25.1,0.1,37.8,0.7C248.8,391.3,248.9,391.7,248.9,391.7z"/>
<path class="st5" d="M326.9,391.7c-13,0-25.9,0.1-39.3-0.2c-0.4-0.3-0.6-0.7-0.6-0.7c0.7-0.3,1.3-0.9,2-0.9
	c12.6,0,25.1,0.1,37.8,0.7C326.8,391.3,326.9,391.7,326.9,391.7z"/>
<path class="st5" d="M209.1,364.3c12.6,0,25.2,0,38.2,0.2c0.4,0.2,0.7,0.5,0.7,0.5c-0.7,0.3-1.3,0.9-2,0.9
	c-12.2,0-24.5-0.1-36.8-0.7C209.3,364.7,209.1,364.3,209.1,364.3z"/>
<path class="st5" d="M415.2,418.6c0-0.5,0.5-0.3,0.7-0.5c0.5,2.7,1,5.4,1.1,8.3c0.1,5.8-0.1,11.5-0.7,17.3c-0.6,0.1-1,0.2-1,0.2
	C415.2,435.6,415.2,427.3,415.2,418.6z"/>
<path class="st2" d="M363.7,274.3c11.4-0.4,23.2-0.4,34.9-0.6c3.6-0.1,7.2-0.8,11.1-1.5c-1.4,0.8-3,2.7-4.7,2.7
	C391.4,275,377.7,274.8,363.7,274.3z"/>
<path class="st6" d="M276.7,399.8c0.4,15,0.5,30.4,0.5,46.2c-0.5-0.1-1.1-0.6-1.1-1.1C276.1,429.9,276.2,415,276.7,399.8z"/>
<path class="st3" d="M252,211c-15.1,0.5-30.2,0.6-45.7,0.3c0.4-0.7,1.2-1.3,2-1.3c13.9-0.1,27.9-0.1,41.8,0
	C250.8,210,251.4,210.4,252,211z"/>
<path class="st3" d="M406.7,211.6c-14.7,0.1-29.4,0.2-44.5-0.2c0.2-0.8,0.6-1.4,1.1-1.4c14.8,0,29.7,0.2,44.4,0.8
	C407.3,211.4,407,211.5,406.7,211.6z"/>
<path class="st6" d="M276.7,309.9c0.5,15,0.6,30.4,0.5,46.2c-0.5-0.1-1.1-0.6-1.1-1.1C276.1,340,276.2,325.1,276.7,309.9z"/>
<path class="st6" d="M276.7,219.9c0.5,14.6,0.5,29.6,0.5,45c-0.5,0-1.1-0.6-1.1-1.1C276.1,249.2,276.2,234.7,276.7,219.9z"/>
<path class="st6" d="M337.3,265.1c-0.5-14.7-0.5-29.6-0.5-45c0.5,0,1.1,0.6,1.1,1.1C337.9,235.7,337.8,250.3,337.3,265.1z"/>
<path class="st6" d="M337.3,445.1c-0.5-14.6-0.6-29.4-0.5-44.7c0.5,0,1.2,0.5,1.1,1C337.9,415.8,337.8,430.3,337.3,445.1z"/>
<path class="st6" d="M337.3,353c-0.5-14-0.6-28.3-0.5-43c0.5,0.2,1.1,0.9,1.1,1.6C337.9,325.4,337.8,339.1,337.3,353z"/>
<path class="st4" d="M285.1,274.3c13.7-0.5,27.6-0.5,41.9-0.4c-0.2,0.4-0.9,1-1.6,1C312.1,274.9,298.7,274.8,285.1,274.3z"/>
<path class="st4" d="M206.7,274.3c13.7-0.4,27.8-0.5,42.3-0.4c0,0.4-0.6,1-1.1,1C234.4,274.9,220.7,274.8,206.7,274.3z"/>
<path class="st6" d="M259.3,444.2c-0.5-13.7-0.6-27.7-0.5-42.1c0.5,0.1,1.1,0.6,1.1,1.1C259.9,416.7,259.8,430.3,259.3,444.2z"/>
<path class="st6" d="M259.3,354.1c-0.5-13.7-0.6-27.6-0.5-42c0.5,0,1.1,0.6,1.1,1.1C259.9,326.7,259.8,340.3,259.3,354.1z"/>
<path class="st6" d="M354.7,221.9c0.5,13.3,0.6,26.9,0.5,41c-0.5,0-1.1-0.6-1.1-1.1C354.1,248.6,354.2,235.4,354.7,221.9z"/>
<path class="st6" d="M259.3,263.1c-0.5-13.3-0.6-26.9-0.5-41c0.5,0,1.1,0.6,1.1,1.1C259.9,236.4,259.8,249.6,259.3,263.1z"/>
<path class="st6" d="M286.8,455.3c13-0.5,26.4-0.6,40.2-0.5c-0.1,0.5-0.6,1.2-1.1,1.2C313,455.9,300,455.8,286.8,455.3z"/>
<path class="st6" d="M208.9,455.3c12.7-0.5,25.6-0.6,39-0.6c-0.1,0.5-0.6,1.2-1.1,1.2C234.3,455.9,221.7,455.8,208.9,455.3z"/>
<path class="st6" d="M365.9,455.3c12.7-0.5,25.6-0.6,39.1-0.5c-0.1,0.5-0.6,1.2-1.1,1.2C391.3,455.9,378.7,455.8,365.9,455.3z"/>
<path class="st8" d="M434.2,155.2c0.2-0.4,0.6-0.5,0.7-0.3c-0.3,2.8-0.8,5.4-1.6,8.2C433.3,160.6,433.6,158.1,434.2,155.2z"/>
<path class="st8" d="M364.6,301c0.4,0,0.7,0.2,0.6,0.4c-1.9,1-3.7,1.8-5.8,2.5C360.8,302.9,362.5,301.9,364.6,301z"/>
<path class="st1" d="M248.9,455.1c1.2-0.9,2.9-1.7,4.9-2.9C252.5,453,250.9,454,248.9,455.1z"/>
<path class="st9" d="M259.1,401.2c-1-1.2-1.9-2.8-2.9-4.7C257,397.6,258.1,399.2,259.1,401.2z"/>
<path class="st9" d="M281.4,452.3c1.6,0.5,3.4,1.2,5.2,2.3C284.9,454.2,283.2,453.4,281.4,452.3z"/>
<path class="st9" d="M259.1,311.1c-0.8-0.9-1.6-2.3-2.2-4C257.7,308,258.4,309.4,259.1,311.1z"/>
<path class="st9" d="M354.9,444.9c0.8,0.9,1.5,2.2,2.2,4C356.3,447.9,355.6,446.6,354.9,444.9z"/>
<path class="st8" d="M435,110.6c0,0.4-0.2,0.7-0.4,0.6c-0.5-1.3-0.8-2.6-0.9-4.1C434.4,108,434.7,109.1,435,110.6z"/>
<path class="st9" d="M336.4,358.1c-0.3-1.3-0.1-2.8,0.3-4.4C337,355,336.9,356.4,336.4,358.1z"/>
<path class="st7" d="M208.8,364.1c0.3,0.2,0.4,0.6,0.3,0.8c-1.5,0-2.8-0.1-4.3-0.6C205.9,363.9,207.2,363.9,208.8,364.1z"/>
<path class="st9" d="M356.4,308.2c0,1.2-0.4,2.3-1.1,3.4C355.3,310.4,355.7,309.2,356.4,308.2z"/>
<path class="st9" d="M257.5,448c0-1.2,0.4-2.4,1.2-3.6C258.7,445.7,258.3,446.8,257.5,448z"/>
<path class="st8" d="M286.6,301c0.4,0,0.7,0.2,0.7,0.4c-1.3,0.4-2.5,0.7-4,0.8C284,301.8,285.1,301.4,286.6,301z"/>
<path class="st9" d="M362,453.4c1.2,0,2.4,0.4,3.5,1.2C364.3,454.6,363.1,454.3,362,453.4z"/>
<path class="st8" d="M207.6,301c0.4,0,0.7,0.2,0.6,0.4c-1.1,0.6-2.2,1-3.6,1.4C205.3,302.2,206.3,301.6,207.6,301z"/>
<path class="st1" d="M204.9,454.3c1.1-0.3,2.4-0.1,3.7,0.4C207.4,454.9,206.2,454.8,204.9,454.3z"/>
<path class="st9" d="M356.5,218.1c0,1.2-0.4,2.3-1.2,3.4C355.3,220.4,355.7,219.2,356.5,218.1z"/>
<path class="st7" d="M286.9,364.1c0.2,0.2,0.4,0.6,0.2,0.8c-1.1,0.1-2.1-0.1-3.2-0.5C284.7,364,285.7,363.9,286.9,364.1z"/>
<path class="st7" d="M248.4,365c-0.4,0-0.7-0.3-0.6-0.5c1-0.4,2-0.7,3.2-0.7C250.4,364.3,249.6,364.7,248.4,365z"/>
<path class="st9" d="M259.1,221.1c-0.7-0.5-1.3-1.5-2-2.8C257.7,218.9,258.4,219.8,259.1,221.1z"/>
<path class="st7" d="M415.1,264.1c0.2-0.2,0.6-0.4,0.8-0.2c0.1,1.1-0.1,2.1-0.5,3.2C415,266.3,414.9,265.3,415.1,264.1z"/>
<path class="st9" d="M335.4,268.6c0.1-0.9,0.5-2.1,1.3-3.2C336.6,266.5,336.2,267.4,335.4,268.6z"/>
<path class="st9" d="M278,268.4c0.6,0.2,1.2,0.7,2,1.6C279.4,269.8,278.6,269.3,278,268.4z"/>
<path class="st9" d="M276.9,446.9c0.6,0.2,1.2,0.8,1.9,1.7C278.2,448.4,277.6,447.8,276.9,446.9z"/>
<path class="st9" d="M327.9,455.1c0.2-0.7,0.8-1.3,1.7-2C329.4,453.7,328.9,454.4,327.9,455.1z"/>
<path class="st9" d="M405.9,455.1c0.3-0.5,1.1-1,2.1-1.3C407.6,454.4,407,454.7,405.9,455.1z"/>
<path class="st7" d="M416.1,220.6c0,0.4-0.3,0.7-0.6,0.6c-0.7-1-1.1-1.8-1.6-3.1C414.6,218.5,415.3,219.3,416.1,220.6z"/>
<path class="st2" d="M412.1,270.8c0.3-0.3,0.8-0.8,1.4-1.4C413.2,269.8,412.7,270.2,412.1,270.8z"/>
<path class="st9" d="M254.6,394.8c-0.3-0.2-0.7-0.6-1.2-1.2C253.8,393.7,254.1,394.2,254.6,394.8z"/>
<path class="st9" d="M335.6,216.6c-0.3-0.2-0.8-0.5-1.4-1.1C334.6,215.6,335,216,335.6,216.6z"/>
<path class="st2" d="M286.6,391c0.4,0,0.6,0.4,0.6,0.6c-0.9,0.4-1.7,0.6-3,0.7C284.6,391.7,285.4,391.3,286.6,391z"/>
<path class="st9" d="M336.3,449.3c-0.3-1-0.2-2.2,0.3-3.6C336.9,446.6,336.8,447.8,336.3,449.3z"/>
<path class="st2" d="M208.6,391c0.4,0,0.6,0.4,0.6,0.6c-0.9,0.4-1.7,0.6-2.9,0.7C206.6,391.7,207.4,391.3,208.6,391z"/>
<path class="st7" d="M197.9,264.4c0-0.4,0.4-0.7,0.6-0.6c0.4,0.8,0.6,1.6,0.7,2.8C198.7,266.3,198.3,265.6,197.9,264.4z"/>
<path class="st9" d="M335.8,306.7c-0.5-0.2-1.1-0.7-1.8-1.5C334.5,305.4,335.1,305.9,335.8,306.7z"/>
<path class="st7" d="M198,354.4c0-0.4,0.3-0.6,0.6-0.6c0.4,0.8,0.6,1.6,0.7,2.8C198.7,356.3,198.3,355.5,198,354.4z"/>
<path class="st8" d="M182.8,165.7c0.2,0.1,0.4,0.2,0.6,0.5C183.4,165.9,183.2,165.7,182.8,165.7z"/>
<path class="st9" d="M279.1,449.3c0.2,0.2,0.5,0.7,0.8,1.4C279.7,450.5,279.5,450.1,279.1,449.3z"/>
<path class="st7" d="M197.9,445.4c0-0.4,0.4-0.6,0.6-0.6c0.4,0.6,0.6,1.2,0.7,2.2C198.7,446.9,198.3,446.3,197.9,445.4z"/>
<path class="st7" d="M415.1,444.3c0.2-0.4,0.6-0.5,0.8-0.4c0.2,0.6,0.2,1.1,0.2,1.9C415.7,445.7,415.3,445.2,415.1,444.3z"/>
<path class="st4" d="M204,273.3c0.6-0.2,1.4-0.1,2.2,0.4C205.5,273.9,204.9,273.8,204,273.3z"/>
<path class="st9" d="M354.9,263.9c0.5,0.3,0.9,0.9,1.2,2.1C355.7,265.7,355.3,265,354.9,263.9z"/>
<path class="st1" d="M255.2,451.1c0.2-0.4,0.6-0.6,1.4-0.9C256.4,450.6,255.9,450.9,255.2,451.1z"/>
<path class="st8" d="M406.1,301.8c-0.3-0.2-0.5-0.6-0.3-0.7c0.8,0,1.5,0.1,2.2,0.6C407.5,302,407,302,406.1,301.8z"/>
<path class="st8" d="M327.2,301.8c-0.4-0.2-0.5-0.6-0.4-0.7c0.8,0.1,1.5,0.2,2.4,0.6C328.8,302,328.2,302,327.2,301.8z"/>
<path class="st8" d="M249.1,301.8c-0.3-0.2-0.4-0.6-0.3-0.7c0.8,0,1.4,0.1,2.1,0.6C250.5,302,250,302,249.1,301.8z"/>
<path class="st2" d="M410.2,271.9c0.3-0.2,0.8-0.4,1.6-0.8C411.5,271.2,411,271.5,410.2,271.9z"/>
<path class="st9" d="M203.7,213c-0.2,0.3-0.7,0.7-1.5,1.1C202.4,213.7,202.9,213.4,203.7,213z"/>
<path class="st9" d="M201.8,214.1c0.1,0.4-0.1,1-0.5,1.7C201.2,215.4,201.4,214.9,201.8,214.1z"/>
<path class="st7" d="M199,400.8c-0.2,0.3-0.7,0.4-0.9,0.3c0-0.8,0.2-1.4,0.7-2.1C199.2,399.4,199.2,399.9,199,400.8z"/>
<path class="st9" d="M276.9,265.9c0.5,0.2,1,0.8,1.2,1.8C277.6,267.4,277.3,266.8,276.9,265.9z"/>
<path class="st9" d="M332.8,303.8c-0.3,0-0.9-0.1-1.6-0.6C331.6,303.2,332.1,303.5,332.8,303.8z"/>
<path class="st2" d="M249.2,391.9c-0.3-0.2-0.4-0.6-0.3-0.8c0.7-0.1,1.3,0.1,2,0.5C250.5,392,250,392,249.2,391.9z"/>
<path class="st2" d="M361,273.3c0.7-0.3,1.5-0.2,2.4,0.3C362.7,273.9,362,273.8,361,273.3z"/>
<path class="st7" d="M199,310.8c-0.2,0.3-0.7,0.4-0.9,0.3c0-0.8,0.2-1.4,0.7-2.1C199.2,309.4,199.2,309.9,199,310.8z"/>
<path class="st9" d="M258.3,265.2c-0.3-0.3-0.2-0.9,0.3-1.6C258.9,264,258.8,264.5,258.3,265.2z"/>
<path class="st8" d="M408.8,302.7c-0.2,0.1-0.5-0.1-0.8-0.5C408.3,302.1,408.5,302.2,408.8,302.7z"/>
<path class="st9" d="M258.3,356.2c-0.3-0.3-0.2-0.9,0.3-1.6C258.9,355,258.8,355.5,258.3,356.2z"/>
<path class="st9" d="M276.9,356.9c0.5-0.1,0.9,0.3,1.2,1.1C277.7,358.1,277.3,357.7,276.9,356.9z"/>
<path class="st10" d="M410.3,180c-0.2,0-0.6-0.3-0.5-0.5c0.5-0.2,0.8-0.2,1.2,0.1C411,180,410.5,180,410.3,180z"/>
<path class="st9" d="M205.6,211c0.2,0.4,0,0.9-0.6,1.1C204.9,211.7,205.1,211.3,205.6,211z"/>
<path class="st9" d="M361.6,211.1c0.2,0.4,0.1,0.8-0.3,1.1C361.1,211.8,361.2,211.4,361.6,211.1z"/>
<path class="st9" d="M337.1,309.1c-0.5,0.1-0.9-0.3-1.2-1.1C336.3,307.9,336.7,308.3,337.1,309.1z"/>
<path class="st9" d="M277.7,307.8c0.3,0.4,0.3,1-0.3,1.7C277.1,309,277.2,308.5,277.7,307.8z"/>
<path class="st9" d="M337,219.1c-0.4,0.1-0.8-0.3-1.2-1.1C336.3,218,336.7,218.4,337,219.1z"/>
<path class="st7" d="M327.4,365c-0.3,0.1-0.6-0.3-0.6-0.5c0.3-0.3,0.6-0.5,1.3-0.6C328.3,364.3,328,364.6,327.4,365z"/>
<path class="st9" d="M277.7,217.7c0.3,0.3,0.2,0.9-0.3,1.7C277.1,219,277.2,218.5,277.7,217.7z"/>
<path class="st1" d="M254.2,452c-0.1-0.3,0.1-0.5,0.6-0.9C254.9,451.3,254.7,451.7,254.2,452z"/>
<path class="st2" d="M327.2,391.9c-0.3-0.2-0.4-0.6-0.3-0.8c0.4,0,0.7,0.2,1.2,0.7C328,392.1,327.7,392.1,327.2,391.9z"/>
<path class="st8" d="M251.9,302.7c-0.2,0.1-0.5-0.1-0.9-0.5C251.2,302.1,251.5,302.3,251.9,302.7z"/>
<path class="st9" d="M278,397.9c0.3,0.5,0.1,1.1-0.6,1.6C277.2,399,277.3,398.5,278,397.9z"/>
<path class="st9" d="M336.9,399.7c-0.3,0.1-0.7-0.2-1-0.8C336.3,398.8,336.6,399,336.9,399.7z"/>
</svg>
